<svg id="圖層_1" data-name="圖層 1" xmlns="http://www.w3.org/2000/svg" viewBox="0 0 117.65 106.77"><defs><style>.cls-1{fill:#fff;}</style></defs><title>白色小logo</title><path class="cls-1" d="M120.77,103.85l-18.9-58.28q-5.49-16.92-11-33.83a10,10,0,0,1-.24-1.13h-.87a7.23,7.23,0,0,1-.84.19c-1.48.15-3,.28-4.47.43l-12,1.18L60.44,13.56c-4.25.41-8.52.8-12.77,1.25a7.19,7.19,0,0,0-2.27.6c-4.5,2.11-9,4.29-13.46,6.4a3.38,3.38,0,0,0-1.72,1.81Q22.33,41.31,14.4,59q-4.29,9.58-8.57,19.17c-.23.5-.42,1-.66,1.65l14.62.49c-1.12,2.43-2.17,4.69-3.21,7s-2.12,4.55-3.17,6.83-2.12,4.55-3.16,6.83-2.12,4.5-3.15,6.87c.64.07,1.13.13,1.63.18l6.47.61,10.49,1,10.05,1,10.32,1,10.14,1,12.15,1.17,12.16,1.16,12.06,1.18L105,117.31a7.89,7.89,0,0,0,4.3-.5q6.76-3.25,13.53-6.47v-.18q-1-3.15-2.05-6.31M47.86,18.22a1.16,1.16,0,0,1,.82-.39c2.76-.27,5.53-.5,8.3-.75l10.84-1,8.83-.79L79.71,15a4.69,4.69,0,0,1,1.42.05c-.19.11-.38.23-.57.33l-4.78,2.26a9,9,0,0,1-3.06.73l-12.5,1.2L47.11,20.81a3.17,3.17,0,0,1-.45-.05c.41-.9.76-1.75,1.2-2.54m-3.15,6.84a1.35,1.35,0,0,1,1.33-1c5.71-.5,11.43-1,17.14-1.55,2.86-.26,5.72-.53,8.58-.77,1.22-.1,1.29,0,1.69,1.17Q80,43.39,86.61,63.83L99.24,103c.09.31.17.62.3,1.05L26.86,97.47l13-27.86L25,69.21A2.17,2.17,0,0,1,25.4,68q2.49-5.57,5-11.13l14.1-31.34c.07-.16.17-.32.22-.49m-.86-5.37c-.27,1.33-.44,1.51-1.49,1.59l-1.6.14c0-.07,0-.14,0-.21l3.15-1.52M11,73.88l-.13-.13c.11-.27.22-.54.34-.81q10.34-23,20.7-46c.12-.28.26-.55.39-.82a1.51,1.51,0,0,1,1.26-.86l7.87-.69a2,2,0,0,1,.37.08c-.14.35-.26.66-.4,1L28,55.39c-1.81,4-3.63,8.07-5.41,12.11A2.87,2.87,0,0,1,21.13,69c-3.16,1.49-6.31,3-9.47,4.52l-.71.31m2.92,3.24c-.25,0-.51,0-.95-.09a4.77,4.77,0,0,1,.59-.4c2.86-1.37,5.72-2.75,8.6-4.09a3.84,3.84,0,0,1,1.61-.37c2.13,0,4.27.12,6.41.2.22,0,.45.07.82.12-.32.19-.51.32-.71.42-2.84,1.36-5.68,2.72-8.52,4.05a3,3,0,0,1-1.26.3c-2.2,0-4.39-.08-6.59-.14M12.9,102c.17-.43.26-.67.37-.9q4.62-9.91,9.23-19.82a2.8,2.8,0,0,1,1.44-1.47c3.09-1.45,6.15-2.93,9.23-4.41.26-.12.52-.22.92-.38-.17.43-.27.7-.4,1q-4.55,9.79-9.08,19.59A3.07,3.07,0,0,1,23,97.23c-3.14,1.48-6.26,3-9.38,4.49l-.77.33m89.57,11.43-88.18-8a7.25,7.25,0,0,1,.6-.42c3.07-1.47,6.16-2.93,9.23-4.41a3.11,3.11,0,0,1,1.72-.27l6.73.62,8.48.83,10.32,1,8.22.8,10.4,1,8.31.79,10.58,1,8.22.79,3,.31a.82.82,0,0,1,.81.56c.54,1.68,1.09,3.36,1.62,5a1.35,1.35,0,0,1,0,.29m4.46.54c-.65-2-1.27-3.9-2-6l11.61,1.11,0,.23L106.93,114m9.48-8.42-11.46-1c-1.13-.1-1.13-.09-1.48-1.16Q90.27,62.76,77.09,22.12c-.1-.31-.19-.61-.31-1l11.47-5.48,29,89.94c-.34,0-.58,0-.82,0" transform="translate(-5.17 -10.61)"/><path class="cls-1" d="M52.65,47.33a8.34,8.34,0,0,0,0,16.67" transform="translate(-5.17 -10.61)"/><path class="cls-1" d="M52.65,64a8.34,8.34,0,0,0,0-16.67" transform="translate(-5.17 -10.61)"/></svg>